<svg xmlns="http://www.w3.org/2000/svg" version="1.1" xmlns:xlink="http://www.w3.org/1999/xlink" xmlns:svgjs="http://svgjs.com/svgjs" width="1440" height="560" preserveAspectRatio="none" viewBox="0 0 1440 560"><g mask="url(&quot;#SvgjsMask1008&quot;)" fill="none"><rect width="1440" height="560" x="0" y="0" fill="#0e2a47"></rect><path d="M-78.8 367.66L-78.8 367.66" stroke="#132e65" stroke-width="1.5"></path><path d="M-78.8 367.66L53.23 357.23" stroke="#132e65" stroke-width="1.5"></path><path d="M-78.8 367.66L-62.71 531.87" stroke="#132e65" stroke-width="1.5"></path><path d="M-78.8 367.66L64.3 554.49" stroke="#132e65" stroke-width="1.5"></path><path d="M-78.8 367.66L-49.35 663.39" stroke="#132e65" stroke-width="1.5"></path><path d="M-78.8 367.66L231.68 339.97" stroke="#132e65" stroke-width="1.5"></path><path d="M-62.71 531.87L-62.71 531.87" stroke="#132e65" stroke-width="1.5"></path><path d="M-62.71 531.87L64.3 554.49" stroke="#132e65" stroke-width="1.5"></path><path d="M-62.71 531.87L-49.35 663.39" stroke="#132e65" stroke-width="1.5"></path><path d="M-49.35 663.39L-49.35 663.39" stroke="#132e65" stroke-width="1.5"></path><path d="M-49.35 663.39L90.52 675.82" stroke="#132e65" stroke-width="1.5"></path><path d="M-49.35 663.39L64.3 554.49" stroke="#132e65" stroke-width="1.5"></path><path d="M-49.35 663.39L252.55 686.85" stroke="#132e65" stroke-width="1.5"></path><path d="M53.23 357.23L53.23 357.23" stroke="#132e65" stroke-width="1.5"></path><path d="M53.23 357.23L231.68 339.97" stroke="#132e65" stroke-width="1.5"></path><path d="M53.23 357.23L64.3 554.49" stroke="#132e65" stroke-width="1.5"></path><path d="M53.23 357.23L-62.71 531.87" stroke="#132e65" stroke-width="1.5"></path><path d="M53.23 357.23L252.8 557.48" stroke="#132e65" stroke-width="1.5"></path><path d="M64.3 554.49L64.3 554.49" stroke="#132e65" stroke-width="1.5"></path><path d="M64.3 554.49L90.52 675.82" stroke="#132e65" stroke-width="1.5"></path><path d="M90.52 675.82L90.52 675.82" stroke="#132e65" stroke-width="1.5"></path><path d="M90.52 675.82L252.55 686.85" stroke="#132e65" stroke-width="1.5"></path><path d="M90.52 675.82L252.8 557.48" stroke="#132e65" stroke-width="1.5"></path><path d="M90.52 675.82L-62.71 531.87" stroke="#132e65" stroke-width="1.5"></path><path d="M231.68 339.97L231.68 339.97" stroke="#132e65" stroke-width="1.5"></path><path d="M231.68 339.97L393.29 351.42" stroke="#132e65" stroke-width="1.5"></path><path d="M231.68 339.97L354.75 492.9" stroke="#132e65" stroke-width="1.5"></path><path d="M252.8 557.48L252.8 557.48" stroke="#132e65" stroke-width="1.5"></path><path d="M252.8 557.48L354.75 492.9" stroke="#132e65" stroke-width="1.5"></path><path d="M252.8 557.48L252.55 686.85" stroke="#132e65" stroke-width="1.5"></path><path d="M252.55 686.85L252.55 686.85" stroke="#132e65" stroke-width="1.5"></path><path d="M252.55 686.85L400.67 653.65" stroke="#132e65" stroke-width="1.5"></path><path d="M393.29 351.42L393.29 351.42" stroke="#132e65" stroke-width="1.5"></path><path d="M393.29 351.42L354.75 492.9" stroke="#132e65" stroke-width="1.5"></path><path d="M393.29 351.42L556.09 392.8" stroke="#132e65" stroke-width="1.5"></path><path d="M393.29 351.42L552.63 526.49" stroke="#132e65" stroke-width="1.5"></path><path d="M393.29 351.42L252.8 557.48" stroke="#132e65" stroke-width="1.5"></path><path d="M354.75 492.9L354.75 492.9" stroke="#132e65" stroke-width="1.5"></path><path d="M354.75 492.9L400.67 653.65" stroke="#132e65" stroke-width="1.5"></path><path d="M400.67 653.65L400.67 653.65" stroke="#132e65" stroke-width="1.5"></path><path d="M400.67 653.65L530.84 646.93" stroke="#132e65" stroke-width="1.5"></path><path d="M400.67 653.65L252.8 557.48" stroke="#132e65" stroke-width="1.5"></path><path d="M556.09 392.8L556.09 392.8" stroke="#132e65" stroke-width="1.5"></path><path d="M556.09 392.8L651.53 394.45" stroke="#132e65" stroke-width="1.5"></path><path d="M556.09 392.8L552.63 526.49" stroke="#132e65" stroke-width="1.5"></path><path d="M556.09 392.8L666.94 526.44" stroke="#132e65" stroke-width="1.5"></path><path d="M552.63 526.49L552.63 526.49" stroke="#132e65" stroke-width="1.5"></path><path d="M552.63 526.49L666.94 526.44" stroke="#132e65" stroke-width="1.5"></path><path d="M552.63 526.49L530.84 646.93" stroke="#132e65" stroke-width="1.5"></path><path d="M530.84 646.93L530.84 646.93" stroke="#132e65" stroke-width="1.5"></path><path d="M651.53 394.45L651.53 394.45" stroke="#132e65" stroke-width="1.5"></path><path d="M651.53 394.45L666.94 526.44" stroke="#132e65" stroke-width="1.5"></path><path d="M651.53 394.45L552.63 526.49" stroke="#132e65" stroke-width="1.5"></path><path d="M651.53 394.45L842.37 407.91" stroke="#132e65" stroke-width="1.5"></path><path d="M651.53 394.45L841 515.7" stroke="#132e65" stroke-width="1.5"></path><path d="M666.94 526.44L666.94 526.44" stroke="#132e65" stroke-width="1.5"></path><path d="M666.94 526.44L678.02 653.38" stroke="#132e65" stroke-width="1.5"></path><path d="M678.02 653.38L678.02 653.38" stroke="#132e65" stroke-width="1.5"></path><path d="M678.02 653.38L793.53 655.51" stroke="#132e65" stroke-width="1.5"></path><path d="M678.02 653.38L530.84 646.93" stroke="#132e65" stroke-width="1.5"></path><path d="M678.02 653.38L552.63 526.49" stroke="#132e65" stroke-width="1.5"></path><path d="M678.02 653.38L841 515.7" stroke="#132e65" stroke-width="1.5"></path><path d="M678.02 653.38L651.53 394.45" stroke="#132e65" stroke-width="1.5"></path><path d="M824.44 111.39L824.44 111.39" stroke="#132e65" stroke-width="1.5"></path><path d="M824.44 111.39L799.59 206.53" stroke="#132e65" stroke-width="1.5"></path><path d="M824.44 111.39L985 78.44" stroke="#132e65" stroke-width="1.5"></path><path d="M799.59 206.53L799.59 206.53" stroke="#132e65" stroke-width="1.5"></path><path d="M799.59 206.53L993.64 201.19" stroke="#132e65" stroke-width="1.5"></path><path d="M799.59 206.53L842.37 407.91" stroke="#132e65" stroke-width="1.5"></path><path d="M799.59 206.53L985 78.44" stroke="#132e65" stroke-width="1.5"></path><path d="M842.37 407.91L842.37 407.91" stroke="#132e65" stroke-width="1.5"></path><path d="M842.37 407.91L841 515.7" stroke="#132e65" stroke-width="1.5"></path><path d="M842.37 407.91L972.56 410.89" stroke="#132e65" stroke-width="1.5"></path><path d="M841 515.7L841 515.7" stroke="#132e65" stroke-width="1.5"></path><path d="M841 515.7L793.53 655.51" stroke="#132e65" stroke-width="1.5"></path><path d="M841 515.7L972.56 410.89" stroke="#132e65" stroke-width="1.5"></path><path d="M793.53 655.51L793.53 655.51" stroke="#132e65" stroke-width="1.5"></path><path d="M793.53 655.51L666.94 526.44" stroke="#132e65" stroke-width="1.5"></path><path d="M793.53 655.51L985.7 656.2" stroke="#132e65" stroke-width="1.5"></path><path d="M793.53 655.51L1009.68 536.38" stroke="#132e65" stroke-width="1.5"></path><path d="M793.53 655.51L842.37 407.91" stroke="#132e65" stroke-width="1.5"></path><path d="M945.64 -110.8L945.64 -110.8" stroke="#132e65" stroke-width="1.5"></path><path d="M945.64 -110.8L1106.82 -79.91" stroke="#132e65" stroke-width="1.5"></path><path d="M945.64 -110.8L985 78.44" stroke="#132e65" stroke-width="1.5"></path><path d="M945.64 -110.8L1118.82 61.81" stroke="#132e65" stroke-width="1.5"></path><path d="M945.64 -110.8L824.44 111.39" stroke="#132e65" stroke-width="1.5"></path><path d="M945.64 -110.8L993.64 201.19" stroke="#132e65" stroke-width="1.5"></path><path d="M985 78.44L985 78.44" stroke="#132e65" stroke-width="1.5"></path><path d="M985 78.44L993.64 201.19" stroke="#132e65" stroke-width="1.5"></path><path d="M985 78.44L1118.82 61.81" stroke="#132e65" stroke-width="1.5"></path><path d="M993.64 201.19L993.64 201.19" stroke="#132e65" stroke-width="1.5"></path><path d="M993.64 201.19L1118.55 221.75" stroke="#132e65" stroke-width="1.5"></path><path d="M993.64 201.19L1118.82 61.81" stroke="#132e65" stroke-width="1.5"></path><path d="M993.64 201.19L824.44 111.39" stroke="#132e65" stroke-width="1.5"></path><path d="M972.56 410.89L972.56 410.89" stroke="#132e65" stroke-width="1.5"></path><path d="M972.56 410.89L1009.68 536.38" stroke="#132e65" stroke-width="1.5"></path><path d="M972.56 410.89L1111.9 380.48" stroke="#132e65" stroke-width="1.5"></path><path d="M972.56 410.89L1102.86 544.63" stroke="#132e65" stroke-width="1.5"></path><path d="M972.56 410.89L993.64 201.19" stroke="#132e65" stroke-width="1.5"></path><path d="M1009.68 536.38L1009.68 536.38" stroke="#132e65" stroke-width="1.5"></path><path d="M1009.68 536.38L1102.86 544.63" stroke="#132e65" stroke-width="1.5"></path><path d="M1009.68 536.38L985.7 656.2" stroke="#132e65" stroke-width="1.5"></path><path d="M1009.68 536.38L1101.74 646.96" stroke="#132e65" stroke-width="1.5"></path><path d="M1009.68 536.38L841 515.7" stroke="#132e65" stroke-width="1.5"></path><path d="M1009.68 536.38L1111.9 380.48" stroke="#132e65" stroke-width="1.5"></path><path d="M985.7 656.2L985.7 656.2" stroke="#132e65" stroke-width="1.5"></path><path d="M985.7 656.2L1101.74 646.96" stroke="#132e65" stroke-width="1.5"></path><path d="M985.7 656.2L1102.86 544.63" stroke="#132e65" stroke-width="1.5"></path><path d="M1106.82 -79.91L1106.82 -79.91" stroke="#132e65" stroke-width="1.5"></path><path d="M1106.82 -79.91L1118.82 61.81" stroke="#132e65" stroke-width="1.5"></path><path d="M1106.82 -79.91L1262.01 -98.7" stroke="#132e65" stroke-width="1.5"></path><path d="M1106.82 -79.91L985 78.44" stroke="#132e65" stroke-width="1.5"></path><path d="M1106.82 -79.91L1304.23 74.95" stroke="#132e65" stroke-width="1.5"></path><path d="M1106.82 -79.91L1118.55 221.75" stroke="#132e65" stroke-width="1.5"></path><path d="M1118.82 61.81L1118.82 61.81" stroke="#132e65" stroke-width="1.5"></path><path d="M1118.82 61.81L1118.55 221.75" stroke="#132e65" stroke-width="1.5"></path><path d="M1118.55 221.75L1118.55 221.75" stroke="#132e65" stroke-width="1.5"></path><path d="M1118.55 221.75L1111.9 380.48" stroke="#132e65" stroke-width="1.5"></path><path d="M1118.55 221.75L1291.24 241.8" stroke="#132e65" stroke-width="1.5"></path><path d="M1118.55 221.75L985 78.44" stroke="#132e65" stroke-width="1.5"></path><path d="M1111.9 380.48L1111.9 380.48" stroke="#132e65" stroke-width="1.5"></path><path d="M1102.86 544.63L1102.86 544.63" stroke="#132e65" stroke-width="1.5"></path><path d="M1102.86 544.63L1101.74 646.96" stroke="#132e65" stroke-width="1.5"></path><path d="M1101.74 646.96L1101.74 646.96" stroke="#132e65" stroke-width="1.5"></path><path d="M1262.01 -98.7L1262.01 -98.7" stroke="#132e65" stroke-width="1.5"></path><path d="M1262.01 -98.7L1304.23 74.95" stroke="#132e65" stroke-width="1.5"></path><path d="M1262.01 -98.7L1436.42 -47.62" stroke="#132e65" stroke-width="1.5"></path><path d="M1262.01 -98.7L1118.82 61.81" stroke="#132e65" stroke-width="1.5"></path><path d="M1262.01 -98.7L1460.11 102.25" stroke="#132e65" stroke-width="1.5"></path><path d="M1262.01 -98.7L1577.55 -88.25" stroke="#132e65" stroke-width="1.5"></path><path d="M1304.23 74.95L1304.23 74.95" stroke="#132e65" stroke-width="1.5"></path><path d="M1304.23 74.95L1460.11 102.25" stroke="#132e65" stroke-width="1.5"></path><path d="M1304.23 74.95L1291.24 241.8" stroke="#132e65" stroke-width="1.5"></path><path d="M1304.23 74.95L1436.42 -47.62" stroke="#132e65" stroke-width="1.5"></path><path d="M1304.23 74.95L1118.82 61.81" stroke="#132e65" stroke-width="1.5"></path><path d="M1291.24 241.8L1291.24 241.8" stroke="#132e65" stroke-width="1.5"></path><path d="M1291.24 241.8L1432.48 236.67" stroke="#132e65" stroke-width="1.5"></path><path d="M1291.24 241.8L1294.43 398.49" stroke="#132e65" stroke-width="1.5"></path><path d="M1294.43 398.49L1294.43 398.49" stroke="#132e65" stroke-width="1.5"></path><path d="M1294.43 398.49L1393.92 386.32" stroke="#132e65" stroke-width="1.5"></path><path d="M1294.43 398.49L1254.3 514.38" stroke="#132e65" stroke-width="1.5"></path><path d="M1294.43 398.49L1111.9 380.48" stroke="#132e65" stroke-width="1.5"></path><path d="M1294.43 398.49L1454.21 511.24" stroke="#132e65" stroke-width="1.5"></path><path d="M1294.43 398.49L1432.48 236.67" stroke="#132e65" stroke-width="1.5"></path><path d="M1254.3 514.38L1254.3 514.38" stroke="#132e65" stroke-width="1.5"></path><path d="M1254.3 514.38L1102.86 544.63" stroke="#132e65" stroke-width="1.5"></path><path d="M1265.45 678.36L1265.45 678.36" stroke="#132e65" stroke-width="1.5"></path><path d="M1265.45 678.36L1254.3 514.38" stroke="#132e65" stroke-width="1.5"></path><path d="M1265.45 678.36L1101.74 646.96" stroke="#132e65" stroke-width="1.5"></path><path d="M1436.42 -47.62L1436.42 -47.62" stroke="#132e65" stroke-width="1.5"></path><path d="M1436.42 -47.62L1577.55 -88.25" stroke="#132e65" stroke-width="1.5"></path><path d="M1436.42 -47.62L1460.11 102.25" stroke="#132e65" stroke-width="1.5"></path><path d="M1436.42 -47.62L1569.28 58.13" stroke="#132e65" stroke-width="1.5"></path><path d="M1460.11 102.25L1460.11 102.25" stroke="#132e65" stroke-width="1.5"></path><path d="M1460.11 102.25L1569.28 58.13" stroke="#132e65" stroke-width="1.5"></path><path d="M1460.11 102.25L1432.48 236.67" stroke="#132e65" stroke-width="1.5"></path><path d="M1432.48 236.67L1432.48 236.67" stroke="#132e65" stroke-width="1.5"></path><path d="M1432.48 236.67L1393.92 386.32" stroke="#132e65" stroke-width="1.5"></path><path d="M1432.48 236.67L1600.41 246.34" stroke="#132e65" stroke-width="1.5"></path><path d="M1432.48 236.67L1304.23 74.95" stroke="#132e65" stroke-width="1.5"></path><path d="M1432.48 236.67L1610.6 349.82" stroke="#132e65" stroke-width="1.5"></path><path d="M1393.92 386.32L1393.92 386.32" stroke="#132e65" stroke-width="1.5"></path><path d="M1393.92 386.32L1454.21 511.24" stroke="#132e65" stroke-width="1.5"></path><path d="M1393.92 386.32L1291.24 241.8" stroke="#132e65" stroke-width="1.5"></path><path d="M1454.21 511.24L1454.21 511.24" stroke="#132e65" stroke-width="1.5"></path><path d="M1454.21 511.24L1443.63 646.07" stroke="#132e65" stroke-width="1.5"></path><path d="M1443.63 646.07L1443.63 646.07" stroke="#132e65" stroke-width="1.5"></path><path d="M1443.63 646.07L1598.97 679.55" stroke="#132e65" stroke-width="1.5"></path><path d="M1443.63 646.07L1265.45 678.36" stroke="#132e65" stroke-width="1.5"></path><path d="M1577.55 -88.25L1577.55 -88.25" stroke="#132e65" stroke-width="1.5"></path><path d="M1577.55 -88.25L1569.28 58.13" stroke="#132e65" stroke-width="1.5"></path><path d="M1577.55 -88.25L1460.11 102.25" stroke="#132e65" stroke-width="1.5"></path><path d="M1577.55 -88.25L1304.23 74.95" stroke="#132e65" stroke-width="1.5"></path><path d="M1577.55 -88.25L1600.41 246.34" stroke="#132e65" stroke-width="1.5"></path><path d="M1569.28 58.13L1569.28 58.13" stroke="#132e65" stroke-width="1.5"></path><path d="M1569.28 58.13L1600.41 246.34" stroke="#132e65" stroke-width="1.5"></path><path d="M1569.28 58.13L1432.48 236.67" stroke="#132e65" stroke-width="1.5"></path><path d="M1600.41 246.34L1600.41 246.34" stroke="#132e65" stroke-width="1.5"></path><path d="M1600.41 246.34L1610.6 349.82" stroke="#132e65" stroke-width="1.5"></path><path d="M1600.41 246.34L1460.11 102.25" stroke="#132e65" stroke-width="1.5"></path><path d="M1610.6 349.82L1610.6 349.82" stroke="#132e65" stroke-width="1.5"></path><path d="M1610.6 349.82L1393.92 386.32" stroke="#132e65" stroke-width="1.5"></path><path d="M1610.6 349.82L1454.21 511.24" stroke="#132e65" stroke-width="1.5"></path><path d="M1610.6 349.82L1460.11 102.25" stroke="#132e65" stroke-width="1.5"></path><path d="M1598.97 679.55L1598.97 679.55" stroke="#132e65" stroke-width="1.5"></path><path d="M1598.97 679.55L1454.21 511.24" stroke="#132e65" stroke-width="1.5"></path><path d="M1598.97 679.55L1610.6 349.82" stroke="#132e65" stroke-width="1.5"></path><circle r="5" cx="-78.8" cy="367.66" fill="#132e65"></circle><circle r="5" cx="-62.71" cy="531.87" fill="#132e65"></circle><circle r="5" cx="-49.35" cy="663.39" fill="#132e65"></circle><circle r="5" cx="53.23" cy="357.23" fill="#132e65"></circle><circle r="5" cx="64.3" cy="554.49" fill="#132e65"></circle><circle r="5" cx="90.52" cy="675.82" fill="#132e65"></circle><circle r="5" cx="231.68" cy="339.97" fill="#132e65"></circle><circle r="5" cx="252.8" cy="557.48" fill="#132e65"></circle><circle r="5" cx="252.55" cy="686.85" fill="#132e65"></circle><circle r="5" cx="393.29" cy="351.42" fill="#132e65"></circle><circle r="5" cx="354.75" cy="492.9" fill="#132e65"></circle><circle r="5" cx="400.67" cy="653.65" fill="#132e65"></circle><circle r="5" cx="556.09" cy="392.8" fill="#132e65"></circle><circle r="5" cx="552.63" cy="526.49" fill="#132e65"></circle><circle r="5" cx="530.84" cy="646.93" fill="#132e65"></circle><circle r="5" cx="651.53" cy="394.45" fill="#132e65"></circle><circle r="5" cx="666.94" cy="526.44" fill="#132e65"></circle><circle r="5" cx="678.02" cy="653.38" fill="#132e65"></circle><circle r="5" cx="824.44" cy="111.39" fill="#132e65"></circle><circle r="5" cx="799.59" cy="206.53" fill="#132e65"></circle><circle r="5" cx="842.37" cy="407.91" fill="#132e65"></circle><circle r="5" cx="841" cy="515.7" fill="#132e65"></circle><circle r="5" cx="793.53" cy="655.51" fill="#132e65"></circle><circle r="5" cx="945.64" cy="-110.8" fill="#132e65"></circle><circle r="5" cx="985" cy="78.44" fill="#132e65"></circle><circle r="5" cx="993.64" cy="201.19" fill="#132e65"></circle><circle r="5" cx="972.56" cy="410.89" fill="#132e65"></circle><circle r="5" cx="1009.68" cy="536.38" fill="#132e65"></circle><circle r="5" cx="985.7" cy="656.2" fill="#132e65"></circle><circle r="5" cx="1106.82" cy="-79.91" fill="#132e65"></circle><circle r="5" cx="1118.82" cy="61.81" fill="#132e65"></circle><circle r="5" cx="1118.55" cy="221.75" fill="#132e65"></circle><circle r="5" cx="1111.9" cy="380.48" fill="#132e65"></circle><circle r="5" cx="1102.86" cy="544.63" fill="#132e65"></circle><circle r="5" cx="1101.74" cy="646.96" fill="#132e65"></circle><circle r="5" cx="1262.01" cy="-98.7" fill="#132e65"></circle><circle r="5" cx="1304.23" cy="74.95" fill="#132e65"></circle><circle r="5" cx="1291.24" cy="241.8" fill="#132e65"></circle><circle r="5" cx="1294.43" cy="398.49" fill="#132e65"></circle><circle r="5" cx="1254.3" cy="514.38" fill="#132e65"></circle><circle r="5" cx="1265.45" cy="678.36" fill="#132e65"></circle><circle r="5" cx="1436.42" cy="-47.62" fill="#132e65"></circle><circle r="5" cx="1460.11" cy="102.25" fill="#132e65"></circle><circle r="5" cx="1432.48" cy="236.67" fill="#132e65"></circle><circle r="5" cx="1393.92" cy="386.32" fill="#132e65"></circle><circle r="5" cx="1454.21" cy="511.24" fill="#132e65"></circle><circle r="5" cx="1443.63" cy="646.07" fill="#132e65"></circle><circle r="5" cx="1577.55" cy="-88.25" fill="#132e65"></circle><circle r="5" cx="1569.28" cy="58.13" fill="#132e65"></circle><circle r="5" cx="1600.41" cy="246.34" fill="#132e65"></circle><circle r="5" cx="1610.6" cy="349.82" fill="#132e65"></circle><circle r="5" cx="1598.97" cy="679.55" fill="#132e65"></circle><path d="M-81.05 491.16L-81.05 491.16" stroke="hsl(228.5, 77.2%, 51.5%)" stroke-width="1.5"></path><path d="M-81.05 491.16L-37.81 673.08" stroke="hsl(228.5, 77.2%, 51.5%)" stroke-width="1.5"></path><path d="M-81.05 491.16L75.56 673.91" stroke="hsl(228.5, 77.2%, 51.5%)" stroke-width="1.5"></path><path d="M-81.05 491.16L193.62 560.31" stroke="hsl(228.5, 77.2%, 51.5%)" stroke-width="1.5"></path><path d="M-81.05 491.16L252.59 649.95" stroke="hsl(228.5, 77.2%, 51.5%)" stroke-width="1.5"></path><path d="M-81.05 491.16L349.96 546.11" stroke="hsl(228.5, 77.2%, 51.5%)" stroke-width="1.5"></path><path d="M252.59 649.95L252.59 649.95" stroke="hsl(228.5, 77.2%, 51.5%)" stroke-width="1.5"></path><path d="M252.59 649.95L357.07 641.4" stroke="hsl(228.5, 77.2%, 51.5%)" stroke-width="1.5"></path><path d="M252.59 649.95L193.62 560.31" stroke="hsl(228.5, 77.2%, 51.5%)" stroke-width="1.5"></path><path d="M495.54 488.73L495.54 488.73" stroke="hsl(228.5, 77.2%, 51.5%)" stroke-width="1.5"></path><path d="M495.54 488.73L349.96 546.11" stroke="hsl(228.5, 77.2%, 51.5%)" stroke-width="1.5"></path><path d="M495.54 488.73L678.81 554.49" stroke="hsl(228.5, 77.2%, 51.5%)" stroke-width="1.5"></path><path d="M938.39 390.31L938.39 390.31" stroke="hsl(228.5, 77.2%, 51.5%)" stroke-width="1.5"></path><path d="M938.39 390.31L843.63 404.26" stroke="hsl(228.5, 77.2%, 51.5%)" stroke-width="1.5"></path><path d="M938.39 390.31L956.7 504.96" stroke="hsl(228.5, 77.2%, 51.5%)" stroke-width="1.5"></path><path d="M1301.9 -107.11L1301.9 -107.11" stroke="hsl(228.5, 77.2%, 51.5%)" stroke-width="1.5"></path><path d="M1301.9 -107.11L1458.15 -77.41" stroke="hsl(228.5, 77.2%, 51.5%)" stroke-width="1.5"></path><path d="M1301.9 -107.11L1296.86 104.55" stroke="hsl(228.5, 77.2%, 51.5%)" stroke-width="1.5"></path><path d="M1301.9 -107.11L1553.91 -94.95" stroke="hsl(228.5, 77.2%, 51.5%)" stroke-width="1.5"></path><path d="M1301.9 -107.11L1582.96 44.74" stroke="hsl(228.5, 77.2%, 51.5%)" stroke-width="1.5"></path><path d="M1301.9 -107.11L1277.98 234.84" stroke="hsl(228.5, 77.2%, 51.5%)" stroke-width="1.5"></path><path d="M1301.9 -107.11L1393.38 224.91" stroke="hsl(228.5, 77.2%, 51.5%)" stroke-width="1.5"></path><path d="M1277.98 234.84L1277.98 234.84" stroke="hsl(228.5, 77.2%, 51.5%)" stroke-width="1.5"></path><path d="M1277.98 234.84L1393.38 224.91" stroke="hsl(228.5, 77.2%, 51.5%)" stroke-width="1.5"></path><path d="M1277.98 234.84L1296.86 104.55" stroke="hsl(228.5, 77.2%, 51.5%)" stroke-width="1.5"></path><path d="M1458.15 -77.41L1458.15 -77.41" stroke="hsl(228.5, 77.2%, 51.5%)" stroke-width="1.5"></path><path d="M1458.15 -77.41L1553.91 -94.95" stroke="hsl(228.5, 77.2%, 51.5%)" stroke-width="1.5"></path><path d="M1458.15 -77.41L1582.96 44.74" stroke="hsl(228.5, 77.2%, 51.5%)" stroke-width="1.5"></path><path d="M1542.12 699.47L1542.12 699.47" stroke="hsl(228.5, 77.2%, 51.5%)" stroke-width="1.5"></path><path d="M1542.12 699.47L1443.65 695.22" stroke="hsl(228.5, 77.2%, 51.5%)" stroke-width="1.5"></path><path d="M1542.12 699.47L1581.37 559.56" stroke="hsl(228.5, 77.2%, 51.5%)" stroke-width="1.5"></path><path d="M1542.12 699.47L1441.32 511.47" stroke="hsl(228.5, 77.2%, 51.5%)" stroke-width="1.5"></path><path d="M-37.81 673.08L-37.81 673.08" stroke="hsl(228.5, 77.2%, 51.5%)" stroke-width="1.5"></path><path d="M-37.81 673.08L75.56 673.91" stroke="hsl(228.5, 77.2%, 51.5%)" stroke-width="1.5"></path><path d="M-37.81 673.08L193.62 560.31" stroke="hsl(228.5, 77.2%, 51.5%)" stroke-width="1.5"></path><path d="M-37.81 673.08L252.59 649.95" stroke="hsl(228.5, 77.2%, 51.5%)" stroke-width="1.5"></path><path d="M-37.81 673.08L357.07 641.4" stroke="hsl(228.5, 77.2%, 51.5%)" stroke-width="1.5"></path><path d="M-37.81 673.08L349.96 546.11" stroke="hsl(228.5, 77.2%, 51.5%)" stroke-width="1.5"></path><path d="M75.56 673.91L75.56 673.91" stroke="hsl(228.5, 77.2%, 51.5%)" stroke-width="1.5"></path><path d="M75.56 673.91L193.62 560.31" stroke="hsl(228.5, 77.2%, 51.5%)" stroke-width="1.5"></path><path d="M75.56 673.91L252.59 649.95" stroke="hsl(228.5, 77.2%, 51.5%)" stroke-width="1.5"></path><path d="M75.56 673.91L357.07 641.4" stroke="hsl(228.5, 77.2%, 51.5%)" stroke-width="1.5"></path><path d="M75.56 673.91L349.96 546.11" stroke="hsl(228.5, 77.2%, 51.5%)" stroke-width="1.5"></path><path d="M193.62 560.31L193.62 560.31" stroke="hsl(228.5, 77.2%, 51.5%)" stroke-width="1.5"></path><path d="M193.62 560.31L349.96 546.11" stroke="hsl(228.5, 77.2%, 51.5%)" stroke-width="1.5"></path><path d="M193.62 560.31L357.07 641.4" stroke="hsl(228.5, 77.2%, 51.5%)" stroke-width="1.5"></path><path d="M349.96 546.11L349.96 546.11" stroke="hsl(228.5, 77.2%, 51.5%)" stroke-width="1.5"></path><path d="M349.96 546.11L357.07 641.4" stroke="hsl(228.5, 77.2%, 51.5%)" stroke-width="1.5"></path><path d="M349.96 546.11L252.59 649.95" stroke="hsl(228.5, 77.2%, 51.5%)" stroke-width="1.5"></path><path d="M349.96 546.11L516.15 695.68" stroke="hsl(228.5, 77.2%, 51.5%)" stroke-width="1.5"></path><path d="M357.07 641.4L357.07 641.4" stroke="hsl(228.5, 77.2%, 51.5%)" stroke-width="1.5"></path><path d="M516.15 695.68L516.15 695.68" stroke="hsl(228.5, 77.2%, 51.5%)" stroke-width="1.5"></path><path d="M516.15 695.68L357.07 641.4" stroke="hsl(228.5, 77.2%, 51.5%)" stroke-width="1.5"></path><path d="M516.15 695.68L683.58 643.96" stroke="hsl(228.5, 77.2%, 51.5%)" stroke-width="1.5"></path><path d="M516.15 695.68L495.54 488.73" stroke="hsl(228.5, 77.2%, 51.5%)" stroke-width="1.5"></path><path d="M678.81 554.49L678.81 554.49" stroke="hsl(228.5, 77.2%, 51.5%)" stroke-width="1.5"></path><path d="M678.81 554.49L683.58 643.96" stroke="hsl(228.5, 77.2%, 51.5%)" stroke-width="1.5"></path><path d="M678.81 554.49L821.58 538.06" stroke="hsl(228.5, 77.2%, 51.5%)" stroke-width="1.5"></path><path d="M678.81 554.49L793.21 682.94" stroke="hsl(228.5, 77.2%, 51.5%)" stroke-width="1.5"></path><path d="M683.58 643.96L683.58 643.96" stroke="hsl(228.5, 77.2%, 51.5%)" stroke-width="1.5"></path><path d="M683.58 643.96L793.21 682.94" stroke="hsl(228.5, 77.2%, 51.5%)" stroke-width="1.5"></path><path d="M683.58 643.96L821.58 538.06" stroke="hsl(228.5, 77.2%, 51.5%)" stroke-width="1.5"></path><path d="M843.63 404.26L843.63 404.26" stroke="hsl(228.5, 77.2%, 51.5%)" stroke-width="1.5"></path><path d="M843.63 404.26L821.58 538.06" stroke="hsl(228.5, 77.2%, 51.5%)" stroke-width="1.5"></path><path d="M843.63 404.26L956.7 504.96" stroke="hsl(228.5, 77.2%, 51.5%)" stroke-width="1.5"></path><path d="M821.58 538.06L821.58 538.06" stroke="hsl(228.5, 77.2%, 51.5%)" stroke-width="1.5"></path><path d="M821.58 538.06L956.7 504.96" stroke="hsl(228.5, 77.2%, 51.5%)" stroke-width="1.5"></path><path d="M821.58 538.06L793.21 682.94" stroke="hsl(228.5, 77.2%, 51.5%)" stroke-width="1.5"></path><path d="M821.58 538.06L938.39 390.31" stroke="hsl(228.5, 77.2%, 51.5%)" stroke-width="1.5"></path><path d="M793.21 682.94L793.21 682.94" stroke="hsl(228.5, 77.2%, 51.5%)" stroke-width="1.5"></path><path d="M1003.19 224.67L1003.19 224.67" stroke="hsl(228.5, 77.2%, 51.5%)" stroke-width="1.5"></path><path d="M1003.19 224.67L938.39 390.31" stroke="hsl(228.5, 77.2%, 51.5%)" stroke-width="1.5"></path><path d="M1003.19 224.67L1152.72 395.45" stroke="hsl(228.5, 77.2%, 51.5%)" stroke-width="1.5"></path><path d="M1003.19 224.67L843.63 404.26" stroke="hsl(228.5, 77.2%, 51.5%)" stroke-width="1.5"></path><path d="M1003.19 224.67L1277.98 234.84" stroke="hsl(228.5, 77.2%, 51.5%)" stroke-width="1.5"></path><path d="M1003.19 224.67L956.7 504.96" stroke="hsl(228.5, 77.2%, 51.5%)" stroke-width="1.5"></path><path d="M956.7 504.96L956.7 504.96" stroke="hsl(228.5, 77.2%, 51.5%)" stroke-width="1.5"></path><path d="M972.3 709.2L972.3 709.2" stroke="hsl(228.5, 77.2%, 51.5%)" stroke-width="1.5"></path><path d="M972.3 709.2L1127.67 687.78" stroke="hsl(228.5, 77.2%, 51.5%)" stroke-width="1.5"></path><path d="M972.3 709.2L793.21 682.94" stroke="hsl(228.5, 77.2%, 51.5%)" stroke-width="1.5"></path><path d="M972.3 709.2L956.7 504.96" stroke="hsl(228.5, 77.2%, 51.5%)" stroke-width="1.5"></path><path d="M972.3 709.2L1104.6 539.01" stroke="hsl(228.5, 77.2%, 51.5%)" stroke-width="1.5"></path><path d="M1152.72 395.45L1152.72 395.45" stroke="hsl(228.5, 77.2%, 51.5%)" stroke-width="1.5"></path><path d="M1152.72 395.45L1104.6 539.01" stroke="hsl(228.5, 77.2%, 51.5%)" stroke-width="1.5"></path><path d="M1152.72 395.45L1283.74 517.47" stroke="hsl(228.5, 77.2%, 51.5%)" stroke-width="1.5"></path><path d="M1152.72 395.45L1277.98 234.84" stroke="hsl(228.5, 77.2%, 51.5%)" stroke-width="1.5"></path><path d="M1152.72 395.45L938.39 390.31" stroke="hsl(228.5, 77.2%, 51.5%)" stroke-width="1.5"></path><path d="M1104.6 539.01L1104.6 539.01" stroke="hsl(228.5, 77.2%, 51.5%)" stroke-width="1.5"></path><path d="M1104.6 539.01L1127.67 687.78" stroke="hsl(228.5, 77.2%, 51.5%)" stroke-width="1.5"></path><path d="M1104.6 539.01L956.7 504.96" stroke="hsl(228.5, 77.2%, 51.5%)" stroke-width="1.5"></path><path d="M1127.67 687.78L1127.67 687.78" stroke="hsl(228.5, 77.2%, 51.5%)" stroke-width="1.5"></path><path d="M1127.67 687.78L1257.11 682.67" stroke="hsl(228.5, 77.2%, 51.5%)" stroke-width="1.5"></path><path d="M1296.86 104.55L1296.86 104.55" stroke="hsl(228.5, 77.2%, 51.5%)" stroke-width="1.5"></path><path d="M1296.86 104.55L1393.38 224.91" stroke="hsl(228.5, 77.2%, 51.5%)" stroke-width="1.5"></path><path d="M1283.74 517.47L1283.74 517.47" stroke="hsl(228.5, 77.2%, 51.5%)" stroke-width="1.5"></path><path d="M1283.74 517.47L1441.32 511.47" stroke="hsl(228.5, 77.2%, 51.5%)" stroke-width="1.5"></path><path d="M1283.74 517.47L1257.11 682.67" stroke="hsl(228.5, 77.2%, 51.5%)" stroke-width="1.5"></path><path d="M1283.74 517.47L1104.6 539.01" stroke="hsl(228.5, 77.2%, 51.5%)" stroke-width="1.5"></path><path d="M1283.74 517.47L1127.67 687.78" stroke="hsl(228.5, 77.2%, 51.5%)" stroke-width="1.5"></path><path d="M1257.11 682.67L1257.11 682.67" stroke="hsl(228.5, 77.2%, 51.5%)" stroke-width="1.5"></path><path d="M1393.38 224.91L1393.38 224.91" stroke="hsl(228.5, 77.2%, 51.5%)" stroke-width="1.5"></path><path d="M1444.97 342.33L1444.97 342.33" stroke="hsl(228.5, 77.2%, 51.5%)" stroke-width="1.5"></path><path d="M1444.97 342.33L1393.38 224.91" stroke="hsl(228.5, 77.2%, 51.5%)" stroke-width="1.5"></path><path d="M1444.97 342.33L1545.72 251.41" stroke="hsl(228.5, 77.2%, 51.5%)" stroke-width="1.5"></path><path d="M1444.97 342.33L1441.32 511.47" stroke="hsl(228.5, 77.2%, 51.5%)" stroke-width="1.5"></path><path d="M1444.97 342.33L1277.98 234.84" stroke="hsl(228.5, 77.2%, 51.5%)" stroke-width="1.5"></path><path d="M1444.97 342.33L1283.74 517.47" stroke="hsl(228.5, 77.2%, 51.5%)" stroke-width="1.5"></path><path d="M1441.32 511.47L1441.32 511.47" stroke="hsl(228.5, 77.2%, 51.5%)" stroke-width="1.5"></path><path d="M1441.32 511.47L1581.37 559.56" stroke="hsl(228.5, 77.2%, 51.5%)" stroke-width="1.5"></path><path d="M1441.32 511.47L1443.65 695.22" stroke="hsl(228.5, 77.2%, 51.5%)" stroke-width="1.5"></path><path d="M1443.65 695.22L1443.65 695.22" stroke="hsl(228.5, 77.2%, 51.5%)" stroke-width="1.5"></path><path d="M1443.65 695.22L1257.11 682.67" stroke="hsl(228.5, 77.2%, 51.5%)" stroke-width="1.5"></path><path d="M1553.91 -94.95L1553.91 -94.95" stroke="hsl(228.5, 77.2%, 51.5%)" stroke-width="1.5"></path><path d="M1553.91 -94.95L1582.96 44.74" stroke="hsl(228.5, 77.2%, 51.5%)" stroke-width="1.5"></path><path d="M1553.91 -94.95L1296.86 104.55" stroke="hsl(228.5, 77.2%, 51.5%)" stroke-width="1.5"></path><path d="M1553.91 -94.95L1545.72 251.41" stroke="hsl(228.5, 77.2%, 51.5%)" stroke-width="1.5"></path><path d="M1582.96 44.74L1582.96 44.74" stroke="hsl(228.5, 77.2%, 51.5%)" stroke-width="1.5"></path><path d="M1582.96 44.74L1545.72 251.41" stroke="hsl(228.5, 77.2%, 51.5%)" stroke-width="1.5"></path><path d="M1582.96 44.74L1393.38 224.91" stroke="hsl(228.5, 77.2%, 51.5%)" stroke-width="1.5"></path><path d="M1582.96 44.74L1296.86 104.55" stroke="hsl(228.5, 77.2%, 51.5%)" stroke-width="1.5"></path><path d="M1545.72 251.41L1545.72 251.41" stroke="hsl(228.5, 77.2%, 51.5%)" stroke-width="1.5"></path><path d="M1545.72 251.41L1393.38 224.91" stroke="hsl(228.5, 77.2%, 51.5%)" stroke-width="1.5"></path><path d="M1545.72 251.41L1277.98 234.84" stroke="hsl(228.5, 77.2%, 51.5%)" stroke-width="1.5"></path><path d="M1581.37 559.56L1581.37 559.56" stroke="hsl(228.5, 77.2%, 51.5%)" stroke-width="1.5"></path><path d="M1581.37 559.56L1443.65 695.22" stroke="hsl(228.5, 77.2%, 51.5%)" stroke-width="1.5"></path><path d="M1581.37 559.56L1444.97 342.33" stroke="hsl(228.5, 77.2%, 51.5%)" stroke-width="1.5"></path><circle r="25" cx="-81.05" cy="491.16" fill="url(#SvgjsRadialGradient1009)"></circle><circle r="25" cx="252.59" cy="649.95" fill="url(#SvgjsRadialGradient1009)"></circle><circle r="25" cx="495.54" cy="488.73" fill="url(#SvgjsRadialGradient1009)"></circle><circle r="25" cx="938.39" cy="390.31" fill="url(#SvgjsRadialGradient1009)"></circle><circle r="25" cx="1301.9" cy="-107.11" fill="url(#SvgjsRadialGradient1009)"></circle><circle r="25" cx="1277.98" cy="234.84" fill="url(#SvgjsRadialGradient1009)"></circle><circle r="25" cx="1458.15" cy="-77.41" fill="url(#SvgjsRadialGradient1009)"></circle><circle r="25" cx="1542.12" cy="699.47" fill="url(#SvgjsRadialGradient1009)"></circle><circle r="5" cx="-37.81" cy="673.08" fill="#8b9ad9"></circle><circle r="5" cx="75.56" cy="673.91" fill="#8b9ad9"></circle><circle r="5" cx="193.62" cy="560.31" fill="#8b9ad9"></circle><circle r="5" cx="349.96" cy="546.11" fill="#8b9ad9"></circle><circle r="5" cx="357.07" cy="641.4" fill="#8b9ad9"></circle><circle r="5" cx="516.15" cy="695.68" fill="#8b9ad9"></circle><circle r="5" cx="678.81" cy="554.49" fill="#8b9ad9"></circle><circle r="5" cx="683.58" cy="643.96" fill="#8b9ad9"></circle><circle r="5" cx="843.63" cy="404.26" fill="#8b9ad9"></circle><circle r="5" cx="821.58" cy="538.06" fill="#8b9ad9"></circle><circle r="5" cx="793.21" cy="682.94" fill="#8b9ad9"></circle><circle r="5" cx="1003.19" cy="224.67" fill="#8b9ad9"></circle><circle r="5" cx="956.7" cy="504.96" fill="#8b9ad9"></circle><circle r="5" cx="972.3" cy="709.2" fill="#8b9ad9"></circle><circle r="5" cx="1152.72" cy="395.45" fill="#8b9ad9"></circle><circle r="5" cx="1104.6" cy="539.01" fill="#8b9ad9"></circle><circle r="5" cx="1127.67" cy="687.78" fill="#8b9ad9"></circle><circle r="5" cx="1296.86" cy="104.55" fill="#8b9ad9"></circle><circle r="5" cx="1283.74" cy="517.47" fill="#8b9ad9"></circle><circle r="5" cx="1257.11" cy="682.67" fill="#8b9ad9"></circle><circle r="5" cx="1393.38" cy="224.91" fill="#8b9ad9"></circle><circle r="5" cx="1444.97" cy="342.33" fill="#8b9ad9"></circle><circle r="5" cx="1441.32" cy="511.47" fill="#8b9ad9"></circle><circle r="5" cx="1443.65" cy="695.22" fill="#8b9ad9"></circle><circle r="5" cx="1553.91" cy="-94.95" fill="#8b9ad9"></circle><circle r="5" cx="1582.96" cy="44.74" fill="#8b9ad9"></circle><circle r="5" cx="1545.72" cy="251.41" fill="#8b9ad9"></circle><circle r="5" cx="1581.37" cy="559.56" fill="#8b9ad9"></circle></g><defs><mask id="SvgjsMask1008"><rect width="1440" height="560" fill="#ffffff"></rect></mask><radialGradient id="SvgjsRadialGradient1009"><stop stop-color="#ffffff" offset="0.1"></stop><stop stop-color="#1735b3" offset="0.2"></stop><stop stop-color="rgba(23, 53, 179, 0)" offset="1"></stop></radialGradient></defs></svg>